<?xml version="1.0" standalone="no"?>
<!DOCTYPE svg PUBLIC "-//W3C//DTD SVG 20010904//EN"
 "http://www.w3.org/TR/2001/REC-SVG-20010904/DTD/svg10.dtd">
<svg version="1.0" xmlns="http://www.w3.org/2000/svg"
 width="512.000000pt" height="512.000000pt" viewBox="0 0 512.000000 512.000000"
 preserveAspectRatio="xMidYMid meet">

<g transform="translate(0.000000,512.000000) scale(0.100000,-0.100000)"
fill="#000000" stroke="none">
<path fill="#3C495B" d="M2428 4831 c-77 -25 -118 -52 -177 -116 -106 -117 -130 -291 -60
-440 12 -25 46 -71 75 -103 30 -31 53 -61 51 -67 -2 -6 -99 -12 -251 -15 -306
-6 -286 6 -286 -170 l0 -118 -76 -4 c-111 -5 -114 -11 -114 -193 0 -129 2
-145 21 -169 16 -21 29 -26 64 -26 24 0 46 -4 49 -8 5 -9 -30 -129 -143 -482
-224 -698 -274 -929 -275 -1270 -1 -204 8 -284 46 -400 47 -145 116 -255 225
-356 l66 -62 -24 -38 c-72 -118 -172 -243 -231 -290 -94 -75 -124 -159 -79
-215 l19 -24 1232 0 1232 0 19 24 c27 33 25 112 -5 176 -27 60 -92 126 -161
165 -47 27 -93 79 -143 161 l-21 35 72 75 c157 160 224 339 234 624 7 193 -5
311 -53 534 -47 223 -99 397 -270 907 -79 237 -144 434 -144 437 0 4 31 7 68
7 59 0 72 3 90 23 21 22 22 33 22 171 0 143 -1 148 -25 171 -21 22 -33 25 -95
25 l-70 0 0 119 c0 104 -2 121 -21 144 l-20 27 -242 2 c-279 3 -277 3 -199 84
27 28 62 77 78 110 26 54 29 68 29 164 0 99 -2 110 -32 171 -43 87 -128 168
-208 199 -82 31 -192 36 -267 11z m222 -176 c96 -50 146 -179 109 -284 l-11
-31 -199 0 -200 0 -15 35 c-17 41 -18 95 -3 149 14 50 83 123 134 142 49 18
139 13 185 -11z m623 -1832 c200 -601 265 -854 287 -1124 23 -282 -26 -470
-162 -614 -102 -110 -230 -173 -433 -215 -83 -17 -137 -20 -375 -20 -203 0
-301 4 -366 15 -317 55 -515 176 -617 379 -67 132 -96 324 -78 514 30 310 81
513 297 1189 l109 343 591 0 590 0 157 -467z"/>
<path fill="#EE4C2C" d="M2254 2608 c-313 -315 -342 -351 -397 -488 -34 -87 -47 -164 -47
-280 0 -194 68 -364 203 -506 95 -101 189 -161 317 -205 87 -30 105 -33 225
-33 147 -1 215 13 330 68 147 70 267 187 345 337 59 113 82 210 82 344 0 181
-55 339 -163 474 l-52 63 -65 -65 -64 -65 41 -54 c48 -65 94 -163 110 -236 59
-279 -109 -568 -384 -661 -303 -101 -639 80 -731 394 -23 81 -23 221 0 299 40
135 64 166 318 422 l239 241 -3 127 -3 127 -301 -303z"/>
<path fill="#EE4C2C" d="M2773 2592 c-74 -58 -33 -172 62 -172 42 0 85 50 85 98 0 33 -6 45
-31 66 -36 30 -84 34 -116 8z"/>
</g>
</svg>
