<svg fill="none" xmlns="http://www.w3.org/2000/svg" viewBox="361.22 1024.27 2430.37 530.37">
<path d="M566.215 1261.25C564.515 1254.95 562.013 1249.4 558.712 1244.6C555.411 1239.7 551.359 1235.54 546.557 1232.14C541.755 1228.74 536.252 1226.19 530.05 1224.49C523.847 1222.69 517.044 1221.79 509.641 1221.79C494.735 1221.79 481.829 1225.39 470.924 1232.59C460.12 1239.8 451.766 1250.3 445.864 1264.11C439.961 1277.81 437.01 1294.47 437.01 1314.08C437.01 1333.79 439.861 1350.59 445.564 1364.5C451.266 1378.41 459.52 1389.01 470.324 1396.31C481.129 1403.62 494.234 1407.27 509.641 1407.27C523.247 1407.27 534.752 1405.07 544.156 1400.66C553.66 1396.16 560.863 1389.81 565.765 1381.61C570.667 1373.4 573.118 1363.75 573.118 1352.64L586.924 1354.29H512.192V1300.12H644.699V1340.79C644.699 1368.3 638.846 1391.86 627.141 1411.47C615.536 1431.08 599.53 1446.13 579.121 1456.64C558.812 1467.14 535.452 1472.4 509.041 1472.4C479.728 1472.4 453.967 1466.04 431.758 1453.34C409.548 1440.63 392.241 1422.52 379.835 1399.01C367.43 1375.4 361.227 1347.39 361.227 1314.98C361.227 1289.77 364.979 1267.41 372.482 1247.9C379.985 1228.29 390.44 1211.68 403.846 1198.08C417.351 1184.47 432.958 1174.17 450.666 1167.16C468.473 1160.16 487.632 1156.66 508.14 1156.66C525.948 1156.66 542.505 1159.21 557.812 1164.31C573.218 1169.42 586.824 1176.62 598.629 1185.92C610.534 1195.23 620.188 1206.28 627.592 1219.09C634.995 1231.89 639.597 1245.95 641.397 1261.25H566.215ZM753.458 1472.1C738.752 1472.1 725.696 1469.64 714.291 1464.74C702.986 1459.74 694.032 1452.24 687.43 1442.23C680.927 1432.13 677.675 1419.47 677.675 1404.27C677.675 1391.46 679.926 1380.66 684.428 1371.85C688.93 1363.05 695.133 1355.9 703.036 1350.39C710.94 1344.89 720.044 1340.74 730.348 1337.94C740.652 1335.04 751.657 1333.09 763.362 1332.09C776.468 1330.88 787.022 1329.63 795.026 1328.33C803.029 1326.93 808.832 1324.98 812.433 1322.48C816.135 1319.88 817.986 1316.23 817.986 1311.53V1310.78C817.986 1303.07 815.334 1297.12 810.032 1292.92C804.73 1288.72 797.577 1286.62 788.573 1286.62C778.869 1286.62 771.065 1288.72 765.163 1292.92C759.26 1297.12 755.509 1302.92 753.908 1310.33L686.229 1307.92C688.23 1293.92 693.382 1281.41 701.686 1270.41C710.089 1259.3 721.594 1250.6 736.201 1244.3C750.907 1237.89 768.564 1234.69 789.173 1234.69C803.88 1234.69 817.435 1236.44 829.841 1239.95C842.246 1243.35 853.051 1248.35 862.254 1254.95C871.458 1261.46 878.561 1269.46 883.564 1278.96C888.666 1288.47 891.217 1299.32 891.217 1311.53V1468.19H822.187V1436.08H820.387C816.285 1443.88 811.033 1450.49 804.63 1455.89C798.327 1461.29 790.874 1465.34 782.27 1468.04C773.767 1470.74 764.162 1472.1 753.458 1472.1ZM776.118 1424.07C784.021 1424.07 791.124 1422.47 797.427 1419.27C803.829 1416.07 808.932 1411.67 812.733 1406.07C816.535 1400.36 818.436 1393.76 818.436 1386.26V1364.35C816.335 1365.45 813.784 1366.45 810.782 1367.35C807.881 1368.25 804.68 1369.1 801.178 1369.9C797.677 1370.7 794.075 1371.4 790.374 1372C786.672 1372.6 783.121 1373.15 779.719 1373.65C772.816 1374.75 766.914 1376.45 762.012 1378.76C757.21 1381.06 753.508 1384.06 750.907 1387.76C748.406 1391.36 747.155 1395.66 747.155 1400.66C747.155 1408.27 749.856 1414.07 755.259 1418.07C760.761 1422.07 767.714 1424.07 776.118 1424.07ZM1137.32 1308.08L1069.94 1309.88C1069.24 1305.07 1067.34 1300.82 1064.24 1297.12C1061.14 1293.32 1057.09 1290.37 1052.09 1288.27C1047.18 1286.07 1041.48 1284.97 1034.98 1284.97C1026.47 1284.97 1019.22 1286.67 1013.22 1290.07C1007.32 1293.47 1004.42 1298.07 1004.52 1303.87C1004.42 1308.38 1006.22 1312.28 1009.92 1315.58C1013.72 1318.88 1020.47 1321.53 1030.18 1323.53L1074.6 1331.94C1097.61 1336.34 1114.71 1343.64 1125.92 1353.84C1137.22 1364.05 1142.92 1377.55 1143.02 1394.36C1142.92 1410.17 1138.22 1423.92 1128.92 1435.63C1119.71 1447.33 1107.11 1456.44 1091.1 1462.94C1075.1 1469.34 1056.79 1472.55 1036.18 1472.55C1003.26 1472.55 977.304 1465.79 958.296 1452.29C939.388 1438.68 928.583 1420.47 925.882 1397.66L998.363 1395.86C999.963 1404.27 1004.12 1410.67 1010.82 1415.07C1017.52 1419.47 1026.07 1421.67 1036.48 1421.67C1045.88 1421.67 1053.54 1419.92 1059.44 1416.42C1065.34 1412.92 1068.34 1408.27 1068.44 1402.47C1068.34 1397.26 1066.04 1393.11 1061.54 1390.01C1057.04 1386.81 1049.98 1384.31 1040.38 1382.51L1000.16 1374.85C977.054 1370.65 959.846 1362.9 948.541 1351.59C937.237 1340.19 931.634 1325.68 931.734 1308.08C931.634 1292.67 935.736 1279.51 944.04 1268.61C952.343 1257.6 964.148 1249.2 979.455 1243.4C994.761 1237.59 1012.82 1234.69 1033.63 1234.69C1064.84 1234.69 1089.45 1241.25 1107.46 1254.35C1125.47 1267.36 1135.42 1285.27 1137.32 1308.08ZM1309.26 1237.69V1291.72H1163.85V1237.69H1309.26ZM1194.31 1182.47H1267.69V1395.71C1267.69 1400.21 1268.39 1403.87 1269.79 1406.67C1271.29 1409.37 1273.44 1411.32 1276.24 1412.52C1279.05 1413.62 1282.4 1414.17 1286.3 1414.17C1289.1 1414.17 1292.05 1413.92 1295.15 1413.42C1298.35 1412.82 1300.75 1412.32 1302.36 1411.92L1313.46 1464.89C1309.96 1465.89 1305.01 1467.14 1298.6 1468.64C1292.3 1470.14 1284.75 1471.09 1275.94 1471.5C1258.74 1472.3 1243.98 1470.29 1231.68 1465.49C1219.47 1460.59 1210.12 1452.99 1203.61 1442.68C1197.21 1432.38 1194.11 1419.42 1194.31 1403.82V1182.47ZM1346.7 1468.19V1237.69H1417.98V1279.71H1420.38C1424.58 1264.51 1431.44 1253.2 1440.94 1245.8C1450.44 1238.3 1461.5 1234.54 1474.1 1234.54C1477.51 1234.54 1481.01 1234.79 1484.61 1235.29C1488.21 1235.69 1491.56 1236.34 1494.66 1237.24V1301.02C1491.16 1299.82 1486.56 1298.87 1480.86 1298.17C1475.25 1297.47 1470.25 1297.12 1465.85 1297.12C1457.15 1297.12 1449.29 1299.07 1442.29 1302.97C1435.39 1306.77 1429.94 1312.13 1425.93 1319.03C1422.03 1325.83 1420.08 1333.84 1420.08 1343.04V1468.19H1346.7ZM2069.3 1468.19V1160.86H2283.59V1221.19H2143.58V1284.21H2272.63V1344.69H2143.58V1407.87H2283.59V1468.19H2069.3ZM2374.98 1554.63C2366.17 1554.63 2357.87 1553.93 2350.07 1552.53C2342.26 1551.23 2335.56 1549.48 2329.96 1547.28L2346.16 1494C2353.37 1496.41 2359.87 1497.81 2365.67 1498.21C2371.58 1498.61 2376.63 1497.66 2380.83 1495.36C2385.13 1493.15 2388.43 1489.2 2390.73 1483.5L2393.59 1476.6L2311.65 1237.69H2388.48L2430.95 1402.17H2433.35L2476.42 1237.69H2553.7L2466.82 1490.25C2462.61 1502.86 2456.66 1513.96 2448.96 1523.57C2441.36 1533.27 2431.5 1540.87 2419.4 1546.38C2407.39 1551.88 2392.58 1554.63 2374.98 1554.63ZM2682.16 1472.55C2658.05 1472.55 2637.24 1467.79 2619.73 1458.29C2602.32 1448.69 2588.92 1435.03 2579.51 1417.32C2570.21 1399.51 2565.56 1378.36 2565.56 1353.84C2565.56 1330.03 2570.26 1309.23 2579.66 1291.42C2589.07 1273.51 2602.32 1259.6 2619.43 1249.7C2636.54 1239.7 2656.7 1234.69 2679.91 1234.69C2696.31 1234.69 2711.32 1237.24 2724.93 1242.35C2738.53 1247.45 2750.29 1255 2760.19 1265.01C2770.1 1275.01 2777.8 1287.37 2783.3 1302.07C2788.8 1316.68 2791.56 1333.44 2791.56 1352.34V1370.65H2591.22V1328.03H2723.28C2723.18 1320.23 2721.33 1313.28 2717.72 1307.17C2714.12 1301.07 2709.17 1296.32 2702.87 1292.92C2696.67 1289.42 2689.51 1287.67 2681.41 1287.67C2673.2 1287.67 2665.85 1289.52 2659.35 1293.22C2652.85 1296.82 2647.69 1301.77 2643.89 1308.08C2640.09 1314.28 2638.09 1321.33 2637.89 1329.23V1372.6C2637.89 1382.01 2639.74 1390.26 2643.44 1397.36C2647.14 1404.37 2652.4 1409.82 2659.2 1413.72C2666 1417.62 2674.11 1419.57 2683.51 1419.57C2690.01 1419.57 2695.91 1418.67 2701.22 1416.87C2706.52 1415.07 2711.07 1412.42 2714.87 1408.92C2718.67 1405.42 2721.53 1401.11 2723.43 1396.01L2790.81 1397.96C2788 1413.07 2781.85 1426.23 2772.35 1437.43C2762.94 1448.54 2750.59 1457.19 2735.28 1463.39C2719.97 1469.49 2702.27 1472.55 2682.16 1472.55Z" fill="black"/>
<path d="M1780.58 1024.29C1642.17 1024.29 1529.94 1177.98 1529.94 1231.02C1529.94 1284.07 1642.17 1437.76 1780.58 1437.76C1819.13 1437.76 1855.64 1425.81 1888.28 1407.46L1977.58 1469.22V1332.95C2011.14 1293.8 2031.21 1253.44 2031.21 1231.02C2031.21 1177.98 1918.99 1024.29 1780.58 1024.29ZM1780.58 1365.86C1711.37 1365.86 1655.26 1305.49 1655.26 1231.03C1655.26 1156.56 1711.37 1096.21 1780.58 1096.21C1849.79 1096.21 1905.89 1156.56 1905.89 1231.03C1905.89 1305.49 1849.79 1365.86 1780.58 1365.86Z" fill="black"/>
<path d="M1780.57 1150.14C1772.43 1150.14 1764.61 1151.57 1757.27 1154.14C1761.94 1158.34 1765.7 1163.58 1768.28 1169.48C1770.87 1175.39 1772.21 1181.82 1772.22 1188.34C1772.22 1213.15 1753.52 1233.28 1730.45 1233.28C1721.51 1233.25 1712.82 1230.12 1705.69 1224.36C1705.51 1226.58 1705.41 1228.8 1705.38 1231.02C1705.38 1275.7 1739.04 1311.92 1780.57 1311.92C1822.11 1311.92 1855.77 1275.7 1855.77 1231.02C1855.77 1186.34 1822.11 1150.14 1780.57 1150.14Z" fill="#419BEE"/>
</svg>